<svg width="93" height="26" viewBox="0 0 93 26" fill="none" xmlns="http://www.w3.org/2000/svg">
  <path
    d="M44.1486 12.0021C42.2622 11.6369 38.5268 12.5369 38.5268 9.69328C38.5268 8.16711 39.5762 7.54098 41.75 7.54098H44.8482C46.0725 7.54098 47.0595 6.6018 47.0595 5.44086C47.0595 5.25824 46.9096 5.11475 46.7097 5.11475H41.4501C37.8521 5.11475 35.8033 6.70615 35.8033 9.68024C35.8033 12.263 37.4274 13.5805 39.976 13.9848C41.8624 14.337 45.5978 13.4631 45.5978 16.2937C45.5978 17.8198 44.5484 18.446 42.3746 18.446H38.027C36.8027 18.446 35.8158 19.3852 35.8158 20.5461C35.8158 20.7287 35.9657 20.8722 36.1656 20.8722H42.6744C46.2724 20.8722 48.3213 19.2808 48.3213 16.3198C48.3213 13.724 46.7722 12.4717 44.1486 12.0021Z"
    fill="white" />
  <path
    d="M72.9099 5.33651C72.9099 5.21911 72.8099 5.11475 72.6975 5.11475H72.5601C71.3857 5.1278 70.4363 6.09307 70.4113 7.29314C70.4113 7.30619 70.4113 7.30619 70.4113 7.31923V20.5331C70.4113 20.5461 70.4113 20.5591 70.4113 20.5722C70.4113 20.6244 70.4113 20.6505 70.4113 20.6635C70.4113 20.807 70.5112 20.8722 70.6237 20.8852C70.6362 20.8852 70.6736 20.8852 70.7361 20.8852H70.7486C70.7611 20.8852 70.7611 20.8852 70.7611 20.8852C71.9479 20.8722 72.9099 19.8939 72.9099 18.6808V5.33651Z"
    fill="white" />
  <path
    d="M92.2784 5.11475H92.1284C90.8791 5.1278 89.8672 6.09307 89.8547 7.29314V16.9198L82.5588 6.11916C82.2839 5.70174 81.8717 5.40173 81.3969 5.2452C81.2095 5.17998 81.0097 5.14084 80.8098 5.1278C80.7473 5.1278 80.6973 5.11475 80.6349 5.11475H78.9858C78.8608 5.11475 78.7609 5.21911 78.7609 5.33651V20.6635C78.7609 20.7809 78.8608 20.8852 78.9858 20.8852H79.1107C79.1232 20.8852 79.1232 20.8852 79.1232 20.8852C80.36 20.8722 81.3595 19.933 81.3969 18.759V9.09325L88.6804 19.8808C88.9677 20.2983 89.3925 20.6113 89.8672 20.7678C90.0421 20.82 90.2295 20.8592 90.4294 20.8722C90.4794 20.8722 90.5418 20.8852 90.5918 20.8852H92.2659C92.3908 20.8852 92.4907 20.7809 92.4907 20.6635V5.34955C92.5032 5.21911 92.4033 5.11475 92.2784 5.11475Z"
    fill="white" />
  <path
    d="M58.9161 5.12765H55.618C55.6055 5.12765 55.5805 5.12765 55.568 5.12765H53.6566C53.4692 5.12765 53.3067 5.27114 53.3067 5.45376C53.3067 5.77986 53.3942 6.10597 53.5316 6.3799C53.8939 7.07124 54.6435 7.55388 55.518 7.55388H58.6163C60.8026 7.55388 61.8395 8.61046 61.8395 10.1366C61.8395 11.6628 60.8151 12.7455 58.6163 12.7455H53.6441C53.4692 12.7455 53.3192 12.8759 53.3067 13.0325C53.3067 13.0455 53.3067 13.0585 53.3067 13.0716V20.6503C53.3067 20.7677 53.4067 20.8721 53.5316 20.8721H53.669C53.6815 20.8721 53.6815 20.8721 53.6815 20.8721C54.9308 20.859 55.9428 19.9198 55.9802 18.7458C55.9802 18.7198 55.9802 18.6937 55.9802 18.6676V15.0021H58.5413C58.5413 15.0021 59.4533 15.0413 60.3778 14.8717C63.0013 14.4021 64.5505 12.7064 64.5505 10.1236C64.563 7.14951 62.5266 5.12765 58.9161 5.12765Z"
    fill="white" />
  <path fill-rule="evenodd" clip-rule="evenodd"
    d="M5.85 19.825L4.37667 21.6017C3.38 20.605 2.55667 19.435 1.95 18.135L3.61833 16.0983C3.29333 15.1233 3.12 14.0617 3.12 12.9783C3.12 8.23333 6.45667 4.29 10.8983 3.33667L10.1617 1.17C11.0717 0.953333 12.025 0.845 13 0.845C13.455 0.845 13.91 0.866667 14.365 0.91L15.2317 3.38C19.6083 4.39833 22.88 8.32 22.88 13C22.88 14.0617 22.7067 15.08 22.4033 16.0117L24.6783 16.445C24.2667 17.8317 23.6167 19.0883 22.7933 20.215L20.215 19.7167C18.4167 21.6667 15.8383 22.88 13 22.88C10.1833 22.88 7.64833 21.6883 5.85 19.825ZM13 26C20.1717 26 26 20.1717 26 13C26 5.82833 20.1717 0 13 0C5.82833 0 0 5.82833 0 13C0 20.1717 5.82833 26 13 26ZM21.1033 11.4617L18.85 12.2417L18.7417 11.765C18.1783 9.1 15.8167 7.10667 12.9783 7.10667C12.3283 7.10667 11.7 7.215 11.115 7.41L10.8983 7.475L8.86167 5.80667L9.46833 5.525C10.53 5.02667 11.7217 4.745 12.9783 4.745C16.8783 4.745 20.15 7.45333 21.0167 11.0717L21.1033 11.4617ZM18.785 14.105L21.255 13.2383L21.19 13.91C20.735 18.0483 17.225 21.2767 12.9783 21.2767C12.155 21.2767 11.375 21.1683 10.6383 20.93L10.27 20.8217L10.725 18.4817L11.18 18.6333C11.7433 18.8067 12.35 18.915 12.9783 18.915C15.7733 18.915 18.135 16.965 18.72 14.3433L18.785 14.105ZM9.12167 17.485L8.62333 20.0633L8.08167 19.6517C6.045 18.1567 4.72333 15.73 4.72333 13C4.72333 10.725 5.655 8.645 7.15 7.15L7.43167 6.86833L9.27333 8.385L8.92667 8.71C7.8 9.79333 7.10667 11.31 7.10667 12.9783C7.10667 14.69 7.82167 16.2067 8.97 17.29L9.12167 17.485Z"
    fill="white" />
</svg>
